<svg id="Layer_1" data-name="Layer 1" xmlns="http://www.w3.org/2000/svg" viewBox="0 0 349.02 129.33"><defs><style>.cls-1{fill:#394fa0;}</style></defs><path class="cls-1" d="M67.52,21.86l-3.1-.07a10.14,10.14,0,0,0-9.91-10.36l.06-3.1A13.23,13.23,0,0,1,67.52,21.86Z"/><path class="cls-1" d="M75.86,22,72.77,22A18.5,18.5,0,0,0,54.7,3.1L54.77,0A21.6,21.6,0,0,1,75.86,22Z"/><path class="cls-1" d="M54.19,25.36a4.47,4.47,0,1,0-4.37-4.56,4.47,4.47,0,0,0,4.37,4.56Z"/><path class="cls-1" d="M51.2,107.68a7,7,0,1,0,0,13.94l.23,0s4.8.42,12.67-7c-7.86-7.49-12.62-7-12.68-7l-.12,0Zm.45,17.06-.55,0a10.07,10.07,0,0,1,0-20.14c1.17-.14,7.18-.29,16.33,9l1.08,1.1-1.09,1.08c-8.17,8.18-13.81,9-15.76,9Z"/><path class="cls-1" d="M54.43,70.07a5.71,5.71,0,1,0-5.71-5.71,5.71,5.71,0,0,0,5.71,5.71Z"/><path class="cls-1" d="M55,116.19A41.73,41.73,0,1,1,96.65,74.44H93.56A38.61,38.61,0,1,0,55,113.1v3.09Z"/><path class="cls-1" d="M54.92,129.33a54.91,54.91,0,1,1,0-109.81v3.09a51.81,51.81,0,1,0,51.8,51.83h3.1a55,55,0,0,1-54.9,54.89Z"/><path class="cls-1" d="M54.86,102.79c-4.63,0-8.27-1.37-10.8-4.07-3.85-4.1-3.69-9.79-3.66-10.46V81.79A8.58,8.58,0,0,1,49,73.22H61.68a8.58,8.58,0,0,1,8.58,8.57v.07c0,.12-.7,11.23-16,11.23V90c11.94,0,12.81-7.59,12.87-8.25a5.49,5.49,0,0,0-5.48-5.42H49a5.48,5.48,0,0,0-5.47,5.47V88.4s-.25,4.94,2.84,8.22c1.92,2,4.79,3.07,8.52,3.07a25.24,25.24,0,0,0,0-50.47C41,49.22,30.11,60.29,30.11,74.44H27c0-15.88,12.23-28.32,27.85-28.32a28.34,28.34,0,0,1,0,56.67Z"/><path class="cls-1" d="M108.31,55.76a4,4,0,1,1,4-4,4,4,0,0,1-4,4ZM118,51.85a9.69,9.69,0,0,0-19.37,0s-1,6.53,9.68,17.18C119.05,58.38,118,51.85,118,51.85Z"/><polygon class="cls-1" points="97.94 83.14 89.42 83.14 89.42 91.66 97.94 91.66 97.94 83.14 97.94 83.14"/><polygon class="cls-1" points="85.85 100.08 77.33 100.08 77.33 108.6 85.85 108.6 85.85 100.08 85.85 100.08"/><path class="cls-1" d="M67.52,21.86l-3.1-.07a10.14,10.14,0,0,0-9.91-10.36l.06-3.1A13.23,13.23,0,0,1,67.52,21.86Z"/><path class="cls-1" d="M75.86,22,72.77,22A18.5,18.5,0,0,0,54.7,3.1L54.77,0A21.6,21.6,0,0,1,75.86,22Z"/><path class="cls-1" d="M54.19,25.36a4.47,4.47,0,1,0-4.37-4.56,4.47,4.47,0,0,0,4.37,4.56Z"/><path class="cls-1" d="M51.2,107.68a7,7,0,1,0,0,13.94l.23,0s4.8.42,12.67-7c-7.86-7.49-12.62-7-12.68-7l-.12,0Zm.45,17.06-.55,0a10.07,10.07,0,0,1,0-20.14c1.17-.14,7.18-.29,16.33,9l1.08,1.1-1.09,1.08c-8.17,8.18-13.81,9-15.76,9Z"/><path class="cls-1" d="M54.43,70.07a5.71,5.71,0,1,0-5.71-5.71,5.71,5.71,0,0,0,5.71,5.71Z"/><path class="cls-1" d="M55,116.19A41.73,41.73,0,1,1,96.65,74.44H93.56A38.61,38.61,0,1,0,55,113.1v3.09Z"/><path class="cls-1" d="M54.92,129.33a54.91,54.91,0,1,1,0-109.81v3.09a51.81,51.81,0,1,0,51.8,51.83h3.1a55,55,0,0,1-54.9,54.89Z"/><path class="cls-1" d="M54.86,102.79c-4.63,0-8.27-1.37-10.8-4.07-3.85-4.1-3.69-9.79-3.66-10.46V81.79A8.58,8.58,0,0,1,49,73.22H61.68a8.58,8.58,0,0,1,8.58,8.57v.07c0,.12-.7,11.23-16,11.23V90c11.94,0,12.81-7.59,12.87-8.25a5.49,5.49,0,0,0-5.48-5.42H49a5.48,5.48,0,0,0-5.47,5.47V88.4s-.25,4.94,2.84,8.22c1.92,2,4.79,3.07,8.52,3.07a25.24,25.24,0,0,0,0-50.47C41,49.22,30.11,60.29,30.11,74.44H27c0-15.88,12.23-28.32,27.85-28.32a28.34,28.34,0,0,1,0,56.67Z"/><path class="cls-1" d="M108.31,55.76a4,4,0,1,1,4-4,4,4,0,0,1-4,4ZM118,51.85a9.69,9.69,0,0,0-19.37,0s-1,6.53,9.68,17.18C119.05,58.38,118,51.85,118,51.85Z"/><polygon class="cls-1" points="97.94 83.14 89.42 83.14 89.42 91.66 97.94 91.66 97.94 83.14 97.94 83.14"/><polygon class="cls-1" points="85.85 100.08 77.33 100.08 77.33 108.6 85.85 108.6 85.85 100.08 85.85 100.08"/><path class="cls-1" d="M156.35,69.59q-11,0-16.91-5.86t-5.93-18.19q0-8.2,2.85-13.52a18,18,0,0,1,8.26-7.93,29.77,29.77,0,0,1,13-2.61,34.4,34.4,0,0,1,8.54,1,21.88,21.88,0,0,1,7.08,3.11,15,15,0,0,1,4.81,5.26,15.23,15.23,0,0,1,1.73,7.48H169.56a7.43,7.43,0,0,0-.91-3.72,7.76,7.76,0,0,0-2.55-2.71,11.85,11.85,0,0,0-3.72-1.63,17.64,17.64,0,0,0-4.41-.54,18.8,18.8,0,0,0-6.16.91,10.56,10.56,0,0,0-4.37,2.78,11.88,11.88,0,0,0-2.61,4.64,21.25,21.25,0,0,0-.88,6.44v2a20,20,0,0,0,1.49,8.34,10,10,0,0,0,4.47,4.84,15.57,15.57,0,0,0,7.39,1.59,17.55,17.55,0,0,0,6.47-1.11,10.06,10.06,0,0,0,4.4-3.22,8.29,8.29,0,0,0,1.59-5.15v-.48H155.87V43.64h23.92V68.78h-6.64l-.88-5A20.46,20.46,0,0,1,167.9,67,20.11,20.11,0,0,1,162.72,69,28.92,28.92,0,0,1,156.35,69.59Z"/><path class="cls-1" d="M242.55,69.5a21.13,21.13,0,0,1-9.34-1.88,12.63,12.63,0,0,1-5.82-5.82,21.89,21.89,0,0,1-2-9.88,21.83,21.83,0,0,1,2-10,12.71,12.71,0,0,1,5.82-5.75,24.25,24.25,0,0,1,18.77,0A12.77,12.77,0,0,1,257.76,42a21.82,21.82,0,0,1,2,10,21.89,21.89,0,0,1-2,9.88A12.68,12.68,0,0,1,252,67.62,21.24,21.24,0,0,1,242.55,69.5Zm0-6.9a8.93,8.93,0,0,0,4.7-1.09,6.35,6.35,0,0,0,2.59-3.33,15.94,15.94,0,0,0,.83-5.49V51.15a16,16,0,0,0-.83-5.5,6.58,6.58,0,0,0-2.59-3.36,8.74,8.74,0,0,0-4.7-1.11,8.59,8.59,0,0,0-4.64,1.11,6.53,6.53,0,0,0-2.59,3.36,16,16,0,0,0-.83,5.5v1.54a15.94,15.94,0,0,0,.83,5.49,6.3,6.3,0,0,0,2.59,3.33A8.78,8.78,0,0,0,242.55,62.6Z"/><path class="cls-1" d="M204.27,106.24a6.51,6.51,0,0,0-1.63-4.51Q201,99.9,197.55,99.9a7.19,7.19,0,0,0-5.4,2,9.47,9.47,0,0,0-2.42,5.39l14.51-.14q0-.3,0-.87Zm2-11.5a12.88,12.88,0,0,1,5,5.49,16.82,16.82,0,0,1,1.62,7.35,19.56,19.56,0,0,1-.81,5.48l-22.06.17a8.44,8.44,0,0,0,3.21,4.83,10.26,10.26,0,0,0,6.16,1.71,24,24,0,0,0,4.77-.5,31.16,31.16,0,0,0,5-1.48l1.71,6.95a29.45,29.45,0,0,1-6,1.68,37,37,0,0,1-6.65.67q-8.16,0-12.67-4.24T181,109.77a20.09,20.09,0,0,1,2-9.35,13.28,13.28,0,0,1,5.77-5.81,19.49,19.49,0,0,1,9.09-2,15.66,15.66,0,0,1,8.41,2.1Z"/><path class="cls-1" d="M211.32,47.77a6.79,6.79,0,0,0-1.69-4.69c-1.12-1.26-2.88-1.9-5.27-1.9a7.46,7.46,0,0,0-5.61,2,9.81,9.81,0,0,0-2.51,5.59l15-.14c0-.2,0-.51,0-.9Zm2.08-11.93a13.4,13.4,0,0,1,5.17,5.69,17.49,17.49,0,0,1,1.67,7.63,20.66,20.66,0,0,1-.83,5.68L196.52,55a8.76,8.76,0,0,0,3.32,5,10.63,10.63,0,0,0,6.4,1.78,25.09,25.09,0,0,0,4.94-.52,31.08,31.08,0,0,0,5.23-1.54L218.19,67a31.38,31.38,0,0,1-6.27,1.74,39.05,39.05,0,0,1-6.9.69q-8.47,0-13.15-4.4t-4.69-13.57a20.89,20.89,0,0,1,2.07-9.71,13.83,13.83,0,0,1,6-6,20.23,20.23,0,0,1,9.43-2,16.29,16.29,0,0,1,8.73,2.18Z"/><path class="cls-1" d="M237.21,118.77a17.51,17.51,0,0,0,8.61-2,13,13,0,0,0,5.44-5.76,20.56,20.56,0,0,0,1.87-9.15q0-8.16-3.95-12.18t-11.67-4l-7.72.06v33ZM220.89,78.2h16.76q12.18,0,18.4,5.78t6.21,17.7a26.25,26.25,0,0,1-3.12,13.07,21.36,21.36,0,0,1-8.82,8.57,27.85,27.85,0,0,1-13.18,3l-16.25.07V78.2Z"/><path class="cls-1" d="M274.8,122.12q-4.65-5-4.65-14.5V78.17h8.93V107q0,12.17,10.61,12.16,10.08,0,10.07-11.65V78.17h8.9v28.68q0,20.28-19.54,20.28-9.67,0-14.32-5Z"/><path class="cls-1" d="M324.48,126a48.3,48.3,0,0,1-7.93-3l3.09-7.92a38.13,38.13,0,0,0,6.62,2.72,20.85,20.85,0,0,0,5.54.73q4.43,0,6.48-1.66a5.45,5.45,0,0,0,2.05-4.45,4.07,4.07,0,0,0-1.13-2.88,9.17,9.17,0,0,0-2.82-2c-1.13-.54-2.73-1.2-4.78-2a58.23,58.23,0,0,1-7-3.07,13.73,13.73,0,0,1-4.65-4.12A11.11,11.11,0,0,1,318,91.64a13,13,0,0,1,2.35-8A13.59,13.59,0,0,1,326.56,79a23.58,23.58,0,0,1,8.53-1.49,30.18,30.18,0,0,1,6.38.65A38,38,0,0,1,347.38,80l-2.86,7.73-.84-.3a29.9,29.9,0,0,0-3.89-1.25,19,19,0,0,0-4.37-.43,11.13,11.13,0,0,0-5.6,1.31,4.36,4.36,0,0,0-2.32,4.09,3.61,3.61,0,0,0,1,2.52A8.36,8.36,0,0,0,331,95.48c1,.5,2.44,1.11,4.28,1.83a61.66,61.66,0,0,1,7,3.26A14.24,14.24,0,0,1,347,105a12.54,12.54,0,0,1,2,7.27,14.68,14.68,0,0,1-2,7.81,13.22,13.22,0,0,1-5.89,5.09,22.23,22.23,0,0,1-9.3,1.78,28.9,28.9,0,0,1-7.32-.91Z"/><path class="cls-1" d="M164.18,104.39a14.68,14.68,0,0,0,6.66-4.81A12.35,12.35,0,0,0,173.31,92a13.82,13.82,0,0,0-1.95-7.52,12.17,12.17,0,0,0-5.52-4.68,20.31,20.31,0,0,0-8.38-1.6h-17v48.15h8.93l0-11.2v-30l5.51,0c2.93,0,5.19.57,6.76,1.83a7.77,7.77,0,0,1-.23,11.39,11.3,11.3,0,0,1-6.73,2h-.13v5.32l13.36,20.75h10.64l-14.37-21.93Z"/></svg>